<svg width="105" height="110" viewBox="0 0 105 110" fill="none" xmlns="http://www.w3.org/2000/svg">
<path d="M16.9889 60.7866L18.2912 66.9424L20.5602 77.6966L21.7283 83.2415L22.5002 86.8934L22.9165 88.8939C22.9702 89.0952 23.0171 89.31 23.0776 89.5114C23.1111 89.6188 23.1313 89.7128 23.1715 89.8135C23.2051 89.9276 23.2454 90.0418 23.2991 90.1559C23.4736 90.6392 23.6817 91.0823 23.9368 91.5052C23.9972 91.6059 24.0577 91.7066 24.1315 91.8073C24.3262 92.1228 24.5477 92.4182 24.7961 92.7068C26.3871 94.5999 28.7769 95.7747 31.3882 95.7747L71.4043 95.8082C75.4925 95.8082 79.0437 92.9485 79.8962 88.9341L82.8365 75.139L83.2863 73.0244L84.2596 68.4394L84.4677 67.4392L84.5751 66.9424L85.8775 60.847L16.9889 60.7866ZM39.7862 87.5513C39.7862 89.4108 38.2825 90.9145 36.423 90.9145C34.5635 90.9145 33.0598 89.4108 33.0598 87.5513V72.729C33.0598 70.8762 34.5635 69.3658 36.423 69.3658C38.2825 69.3658 39.7862 70.8762 39.7862 72.729V87.5513ZM54.7964 87.5513C54.7964 87.7594 54.783 87.9607 54.7427 88.1554C54.4607 89.7263 53.0846 90.9145 51.4332 90.9145C50.4329 90.9145 49.5267 90.4714 48.9158 89.7733C48.3922 89.1825 48.07 88.4105 48.07 87.5513V72.729C48.07 70.8762 49.5737 69.3658 51.4332 69.3658C53.2927 69.3658 54.7964 70.8762 54.7964 72.729V87.5513ZM69.8066 87.5513C69.8066 89.4108 68.3029 90.9145 66.4434 90.9145C64.5839 90.9145 63.0802 89.4108 63.0802 87.5513V72.729C63.0802 70.8762 64.5839 69.3658 66.4434 69.3658C68.3029 69.3658 69.8066 70.8762 69.8066 72.729V87.5513Z" fill="#F3630F"/>
<path d="M48.9165 89.7727C40.0668 91.9934 31.8427 92.9224 24.7941 92.709C24.547 92.421 24.3255 92.1249 24.1281 91.804C24.0543 91.7054 23.9966 91.6067 23.9388 91.508C23.6837 91.0804 23.4703 90.636 23.2971 90.1594C23.2474 90.0439 23.2065 89.9291 23.1736 89.8137C23.1326 89.715 23.1078 89.6163 23.0749 89.5096C23.0171 89.3122 22.9681 89.098 22.9185 88.8926L22.4989 86.8942C25.7144 87.256 29.2595 87.3299 33.0591 87.0915V87.5521C33.0591 89.4109 34.5641 90.9159 36.423 90.9159C38.2818 90.9159 39.7868 89.4109 39.7868 87.5521V86.384C42.4599 85.9973 45.2317 85.463 48.0686 84.7803V87.5521C48.0693 88.4073 48.3902 89.1806 48.9165 89.7727Z" fill="#C24700"/>
<path d="M63.0789 80.0269V85.2576C60.3729 86.3102 57.585 87.2809 54.7394 88.1529C54.7803 87.9636 54.7971 87.7582 54.7971 87.5528V82.947C57.6347 82.075 60.3977 81.0962 63.0789 80.0269Z" fill="#C24700"/>
<path d="M84.257 68.439L82.8338 75.1419C78.9188 77.7324 74.5353 80.1833 69.8066 82.3791V77.0665C75.1609 74.484 80.0459 71.5558 84.257 68.439Z" fill="#C24700"/>
<path d="M85.8775 60.8487L84.5751 66.9461H18.2885L16.9855 60.791L85.8775 60.8487Z" fill="#C24700"/>
<path d="M79.1833 60.7902L85.8775 40.2773" stroke="#F3630F" stroke-width="4.252" stroke-miterlimit="10" stroke-linecap="round"/>
<path d="M25.8474 60.7902L19.1525 40.2773" stroke="#F3630F" stroke-width="4.252" stroke-miterlimit="10" stroke-linecap="round"/>
<path d="M86.9764 63.451H15.8887C13.2941 63.451 11.1902 61.3479 11.1902 58.7526C11.1902 56.1581 13.2934 54.0542 15.8887 54.0542H86.9764C89.571 54.0542 91.6748 56.1574 91.6748 58.7526C91.6748 61.3479 89.571 63.451 86.9764 63.451Z" fill="#F3630F"/>
<path d="M66.4428 109.537C69.4165 109.537 71.8272 107.126 71.8272 104.152C71.8272 101.178 69.4165 98.7676 66.4428 98.7676C63.469 98.7676 61.0583 101.178 61.0583 104.152C61.0583 107.126 63.469 109.537 66.4428 109.537Z" fill="#F3630F"/>
<path d="M41.5329 102.452C42.4714 105.274 40.9455 108.322 38.1241 109.261C35.3026 110.199 32.2543 108.673 31.3158 105.851C30.3773 103.03 31.9032 99.9812 34.7246 99.0428C37.5454 98.1043 40.5938 99.6308 41.5329 102.452Z" fill="#F3630F"/>
<path d="M84.4678 67.4395L84.2597 68.4397L83.2863 73.0246C79.1847 74.9714 74.6467 76.7369 69.8066 78.2608C67.6249 78.9522 65.3761 79.5899 63.0802 80.174C60.3816 80.8587 57.6159 81.4628 54.7964 81.9865C53.1652 82.2885 51.5205 82.5571 49.8624 82.7987C49.2649 82.886 48.6675 82.9666 48.07 83.0471C45.2304 83.4163 42.4647 83.6781 39.7862 83.8392C37.4769 83.9802 35.2281 84.0406 33.0598 84.0339C28.9985 84.0138 25.1922 83.7453 21.7283 83.2418L20.5602 77.6969C24.2792 78.4957 28.4816 78.9791 33.0598 79.0999C35.2214 79.1603 37.4702 79.1402 39.7862 79.0328C42.458 78.9119 45.2237 78.677 48.07 78.3212C48.8689 78.2272 49.6811 78.1198 50.4934 77.999C51.9367 77.7908 53.3733 77.5559 54.7964 77.2941C57.6159 76.7772 60.3883 76.1663 63.0802 75.4749C65.3761 74.8774 67.6249 74.2263 69.8066 73.5147C75.1435 71.7827 80.0976 69.7219 84.4678 67.4395Z" fill="white"/>
<path d="M103.333 48.4858C103.388 49.1853 103.376 49.9029 103.279 50.6414C101.618 63.2759 77.8206 76.7737 50.1242 80.7894C22.4284 84.8051 1.32217 77.8182 2.98297 65.1837C3.0803 64.4446 3.25954 63.7028 3.50456 62.9597C1.59808 65.3972 0.407868 67.8716 0.0876587 70.3091C-1.57246 82.9436 20.5468 89.7834 49.4938 85.5864C78.4408 81.3895 103.253 67.7447 104.913 55.1102C105.234 52.6727 104.66 50.4541 103.333 48.4858Z" fill="#2DC152"/>
<path d="M51.0186 0C39.5258 0 30.2084 9.33699 30.2084 20.8554C30.2084 34.9985 51.0186 54.3751 51.0186 54.3751C51.0186 54.3751 71.8288 34.9979 71.8288 20.8554C71.8288 9.33763 62.5121 0 51.0186 0Z" fill="#2DC152"/>
<circle cx="51.0186" cy="20.139" r="12.0834" fill="#F5F5F5"/>
</svg>
